<svg width="29" height="28" viewBox="0 0 29 28" fill="none" xmlns="http://www.w3.org/2000/svg">
<path d="M14.7085 9.57402C12.1699 9.57402 10.0982 11.5629 10.0982 14C10.0982 16.4371 12.1699 18.426 14.7085 18.426C17.2472 18.426 19.3189 16.4371 19.3189 14C19.3189 11.5629 17.2472 9.57402 14.7085 9.57402ZM28.5363 14C28.5363 12.1672 28.5536 10.351 28.4463 8.52148C28.3391 6.39648 27.8342 4.51055 26.2155 2.95664C24.5934 1.39941 22.6323 0.917968 20.4188 0.815038C18.5096 0.712108 16.6177 0.72871 14.712 0.72871C12.8028 0.72871 10.9109 0.712108 9.00522 0.815038C6.79168 0.917968 4.82716 1.40273 3.20851 2.95664C1.5864 4.51387 1.08489 6.39648 0.977673 8.52148C0.870454 10.3543 0.887748 12.1705 0.887748 14C0.887748 15.8295 0.870454 17.649 0.977673 19.4785C1.08489 21.6035 1.58986 23.4894 3.20851 25.0434C4.83062 26.6006 6.79168 27.082 9.00522 27.185C10.9144 27.2879 12.8063 27.2713 14.712 27.2713C16.6212 27.2713 18.5131 27.2879 20.4188 27.185C22.6323 27.082 24.5969 26.5973 26.2155 25.0434C27.8376 23.4861 28.3391 21.6035 28.4463 19.4785C28.557 17.649 28.5363 15.8328 28.5363 14ZM14.7085 20.81C10.783 20.81 7.61484 17.7686 7.61484 14C7.61484 10.2314 10.783 7.19004 14.7085 7.19004C18.6341 7.19004 21.8023 10.2314 21.8023 14C21.8023 17.7686 18.6341 20.81 14.7085 20.81ZM22.0928 8.50156C21.1762 8.50156 20.4361 7.79101 20.4361 6.91113C20.4361 6.03125 21.1762 5.3207 22.0928 5.3207C23.0093 5.3207 23.7495 6.03125 23.7495 6.91113C23.7498 7.12006 23.7071 7.32699 23.6239 7.52007C23.5408 7.71315 23.4187 7.88858 23.2649 8.03632C23.111 8.18406 22.9282 8.3012 22.7271 8.38103C22.526 8.46086 22.3104 8.50182 22.0928 8.50156Z" fill="#103A58"/>
</svg>
